<svg width="1200" height="675" viewBox="0 0 1200 675" fill="none" xmlns="http://www.w3.org/2000/svg">
  <defs>
    <linearGradient id="bg" x1="0" y1="0" x2="1200" y2="675" gradientUnits="userSpaceOnUse">
      <stop stop-color="#F8FBFD"/>
      <stop offset="0.52" stop-color="#E0F7F4"/>
      <stop offset="1" stop-color="#BAE6FD"/>
    </linearGradient>
    <radialGradient id="glow" cx="0" cy="0" r="1" gradientUnits="userSpaceOnUse" gradientTransform="translate(960 120) rotate(135) scale(540 420)">
      <stop stop-color="#7DD3FC" stop-opacity="0.65"/>
      <stop offset="1" stop-color="#7DD3FC" stop-opacity="0"/>
    </radialGradient>
    <filter id="shadow" x="-20%" y="-20%" width="140%" height="140%" color-interpolation-filters="sRGB">
      <feDropShadow dx="0" dy="18" stdDeviation="22" flood-color="#0F172A" flood-opacity="0.12"/>
    </filter>
  </defs>

  <rect width="1200" height="675" rx="0" fill="url(#bg)"/>
  <rect width="1200" height="675" fill="url(#glow)"/>

  <g opacity="0.22">
    <path d="M0 520C180 445 300 590 480 508C670 420 810 435 980 505C1085 548 1140 555 1200 530V675H0V520Z" fill="#0E7490"/>
    <circle cx="1050" cy="145" r="108" fill="#2CB1A4" opacity="0.2"/>
    <circle cx="1010" cy="190" r="58" fill="#0E7490" opacity="0.16"/>
  </g>

  <g filter="url(#shadow)">
    <rect x="72" y="70" width="1056" height="535" rx="42" fill="white" fill-opacity="0.9"/>
    <rect x="72.5" y="70.5" width="1055" height="534" rx="41.5" stroke="#CBD5E1" stroke-opacity="0.7"/>
  </g>

  <g transform="translate(120 118)">
    <rect x="0" y="0" width="104" height="104" rx="32" fill="#0E7490"/>
    <text x="52" y="68" text-anchor="middle" font-family="Arial, sans-serif" font-size="42" font-weight="900" fill="white">N</text>
    <text x="132" y="42" font-family="Arial, 'Noto Sans JP', sans-serif" font-size="34" font-weight="900" fill="#1E293B">株式会社NKTN</text>
    <text x="132" y="82" font-family="Arial, sans-serif" font-size="32" font-weight="800" fill="#0E7490">Bawui Cleaning</text>
  </g>

  <g transform="translate(120 265)">
    <text x="0" y="0" font-family="Arial, 'Noto Sans JP', sans-serif" font-size="58" font-weight="900" fill="#1E293B" letter-spacing="-2">
      Hotel &amp; Minpaku Cleaning
    </text>
    <text x="0" y="72" font-family="Arial, 'Noto Sans JP', sans-serif" font-size="48" font-weight="900" fill="#0E7490" letter-spacing="-1.4">
      Cleaning + LINE DX
    </text>
    <text x="0" y="132" font-family="Arial, 'Noto Sans JP', sans-serif" font-size="25" font-weight="700" fill="#475569">
      大阪・関西を中心に、ホテル・民泊・Airbnb清掃をサポート
    </text>
  </g>

  <g transform="translate(120 465)" font-family="Arial, 'Noto Sans JP', sans-serif" font-size="22" font-weight="800">
    <rect x="0" y="0" width="175" height="54" rx="27" fill="#E0F2FE"/>
    <text x="87.5" y="35" text-anchor="middle" fill="#0E7490">客室清掃</text>

    <rect x="192" y="0" width="175" height="54" rx="27" fill="#CCFBF1"/>
    <text x="279.5" y="35" text-anchor="middle" fill="#0F766E">写真報告</text>

    <rect x="384" y="0" width="175" height="54" rx="27" fill="#E0F2FE"/>
    <text x="471.5" y="35" text-anchor="middle" fill="#0E7490">LINE連携</text>

    <rect x="576" y="0" width="210" height="54" rx="27" fill="#CCFBF1"/>
    <text x="681" y="35" text-anchor="middle" fill="#0F766E">全国対応相談</text>
  </g>

  <g transform="translate(848 426)">
    <rect x="0" y="0" width="220" height="94" rx="28" fill="#1E293B"/>
    <text x="110" y="38" text-anchor="middle" font-family="Arial, 'Noto Sans JP', sans-serif" font-size="18" font-weight="800" fill="#94A3B8">CONTACT</text>
    <text x="110" y="68" text-anchor="middle" font-family="Arial, sans-serif" font-size="23" font-weight="900" fill="white">info@bawui.com</text>
  </g>
</svg>
